<svg width="322" height="322" viewBox="0 0 322 322" fill="none" xmlns="http://www.w3.org/2000/svg">
<g clip-path="url(#clip0_266_8)">
<path d="M257.6 0H64.4C28.8329 0 0 28.8329 0 64.4V257.6C0 293.167 28.8329 322 64.4 322H257.6C293.167 322 322 293.167 322 257.6V64.4C322 28.8329 293.167 0 257.6 0Z" fill="#059669"/>
<g filter="url(#filter0_d_266_8)">
<path d="M183.733 59.5703C210.781 59.5703 231.743 65.4629 246.62 77.2481C261.518 89.0333 268.967 105.552 268.967 126.804C268.967 143.806 264.759 158.779 256.344 171.723C247.929 184.667 235.951 194.714 220.409 201.862C204.846 209.011 186.824 212.585 166.345 212.585H131.312L124.645 246.309C122.793 255.678 114.575 262.43 105.025 262.43H77.4618C64.8408 262.43 55.375 250.884 57.8501 238.508L87.0517 92.5L87.2066 91.7257C90.946 73.0287 107.363 59.5703 126.43 59.5703H183.733ZM169.823 159.841C179.311 159.841 186.663 157.48 191.88 152.757C197.096 148.013 199.704 141.391 199.704 132.89C199.704 119.173 191.193 112.314 174.17 112.314H157.011C153.676 112.314 150.804 114.667 150.148 117.938L143.424 151.465C142.555 155.797 145.869 159.841 150.288 159.841H169.823Z" fill="black"/>
<path d="M243.515 81.1673L243.518 81.1695C257.064 91.8852 263.967 106.874 263.967 126.804C263.967 142.94 259.987 156.946 252.152 168.998C244.307 181.065 233.1 190.521 218.322 197.318C203.529 204.113 186.243 207.585 166.345 207.585H131.312H127.203L126.407 211.615L119.74 245.339C118.351 252.366 112.188 257.43 105.025 257.43H77.4618C67.9961 257.43 60.8967 248.77 62.753 239.489L91.9546 93.4806L92.1095 92.7062C95.3815 76.3464 109.746 64.5703 126.43 64.5703H183.733C210.122 64.5703 229.83 70.3257 243.515 81.1673ZM195.236 156.464L195.244 156.456C201.714 150.572 204.704 142.485 204.704 132.89C204.704 124.94 202.185 118.179 196.458 113.565C190.937 109.116 183.222 107.314 174.17 107.314H157.011C151.293 107.314 146.37 111.348 145.246 116.954L138.522 150.482C137.032 157.909 142.713 164.841 150.288 164.841H169.823C180.113 164.841 188.82 162.272 195.236 156.464Z" stroke="white" stroke-width="10"/>
</g>
</g>
<defs>
<filter id="filter0_d_266_8" x="53.4551" y="59.5703" width="219.512" height="210.86" filterUnits="userSpaceOnUse" color-interpolation-filters="sRGB">
<feFlood flood-opacity="0" result="BackgroundImageFix"/>
<feColorMatrix in="SourceAlpha" type="matrix" values="0 0 0 0 0 0 0 0 0 0 0 0 0 0 0 0 0 0 127 0" result="hardAlpha"/>
<feOffset dy="4"/>
<feGaussianBlur stdDeviation="2"/>
<feComposite in2="hardAlpha" operator="out"/>
<feColorMatrix type="matrix" values="0 0 0 0 0 0 0 0 0 0 0 0 0 0 0 0 0 0 0.25 0"/>
<feBlend mode="normal" in2="BackgroundImageFix" result="effect1_dropShadow_266_8"/>
<feBlend mode="normal" in="SourceGraphic" in2="effect1_dropShadow_266_8" result="shape"/>
</filter>
<clipPath id="clip0_266_8">
<rect width="322" height="322" fill="white"/>
</clipPath>
</defs>
</svg>
