<svg xmlns="http://www.w3.org/2000/svg" width="256" height="256" viewBox="0 0 100 100"><rect width="100" height="100" rx="20" fill="#b8e986"></rect><path fill="#000000" d="M57.06 18.50Q69.66 18.50 76.59 23.99Q83.53 29.48 83.53 39.38L83.53 39.38Q83.53 47.30 79.61 53.33Q75.69 59.36 68.45 62.69Q61.20 66.02 51.66 66.02L51.66 66.02L40.78 66.02L37.72 81.50L16.48 81.50L29.08 18.50L57.06 18.50ZM52.74 49.64Q57.16 49.64 59.59 47.44Q62.02 45.23 62.02 41.27L62.02 41.27Q62.02 34.88 54.09 34.88L54.09 34.88L46.98 34.88L44.02 49.64L52.74 49.64Z"></path></svg>